<svg width="170" height="170" viewBox="0 0 170 170" fill="none" xmlns="http://www.w3.org/2000/svg">
<circle cx="85" cy="85" r="85" fill="#F44D88"/>
<path fill-rule="evenodd" clip-rule="evenodd" d="M85.5 111C100.136 111 112 99.1355 112 84.5C112 69.8644 100.136 58 85.5 58C70.8644 58 59 69.8644 59 84.5C59 99.1355 70.8644 111 85.5 111ZM85.5 102.167C95.2569 102.167 103.167 94.2569 103.167 84.5C103.167 74.743 95.2569 66.8333 85.5 66.8333C75.743 66.8333 67.8333 74.743 67.8333 84.5C67.8333 94.2569 75.743 102.167 85.5 102.167Z" fill="white"/>
<path d="M111.5 54C109.015 54 107 56.0147 107 58.5C107 60.9853 109.015 63 111.5 63C113.985 63 116 60.9853 116 58.5C116 56.0147 113.985 54 111.5 54Z" fill="white"/>
<path fill-rule="evenodd" clip-rule="evenodd" d="M39.8834 51.2955C37 56.8961 37 64.2277 37 78.8909V91.1091C37 105.772 37 113.104 39.8834 118.704C42.4197 123.631 46.4667 127.636 51.4444 130.146C57.1034 133 64.5114 133 79.3273 133H91.6727C106.489 133 113.897 133 119.555 130.146C124.533 127.636 128.58 123.631 131.116 118.704C134 113.104 134 105.772 134 91.1091V78.8909C134 64.2277 134 56.8961 131.116 51.2955C128.58 46.3691 124.533 42.3638 119.555 39.8536C113.897 37 106.489 37 91.6727 37H79.3273C64.5114 37 57.1034 37 51.4444 39.8536C46.4667 42.3638 42.4197 46.3691 39.8834 51.2955ZM91.6727 45.7273H79.3273C71.7738 45.7273 66.639 45.7341 62.6701 46.055C58.804 46.3676 56.827 46.9342 55.4478 47.6297C52.1293 49.3031 49.4313 51.9733 47.7404 55.2576C47.0377 56.6226 46.4652 58.5792 46.1493 62.4054C45.8251 66.3335 45.8182 71.4153 45.8182 78.8909V91.1091C45.8182 98.5849 45.8251 103.666 46.1493 107.594C46.4652 111.421 47.0377 113.378 47.7404 114.743C49.4313 118.027 52.1293 120.697 55.4478 122.37C56.827 123.066 58.804 123.633 62.6701 123.945C66.639 124.266 71.7738 124.273 79.3273 124.273H91.6727C99.2264 124.273 104.361 124.266 108.33 123.945C112.196 123.633 114.173 123.066 115.552 122.37C118.871 120.697 121.569 118.027 123.259 114.743C123.962 113.378 124.535 111.421 124.851 107.594C125.175 103.666 125.182 98.5849 125.182 91.1091V78.8909C125.182 71.4153 125.175 66.3335 124.851 62.4054C124.535 58.5792 123.962 56.6226 123.259 55.2576C121.569 51.9733 118.871 49.3031 115.552 47.6297C114.173 46.9342 112.196 46.3676 108.33 46.055C104.361 45.7341 99.2264 45.7273 91.6727 45.7273Z" fill="white"/>
</svg>
