<svg width="170" height="170" viewBox="0 0 170 170" fill="none" xmlns="http://www.w3.org/2000/svg">
<g clip-path="url(#clip0_70_77)">
<rect x="31.1665" y="25.5" width="107.667" height="119" fill="white"/>
<path d="M170 85C170 107.543 161.045 129.163 145.104 145.104C129.163 161.045 107.543 170 85 170C62.4566 170 40.8365 161.045 24.8959 145.104C8.95533 129.163 0 107.543 0 85C0 62.4566 8.95533 40.8365 24.8959 24.8959C40.8365 8.95533 62.4566 0 85 0C107.543 0 129.163 8.95533 145.104 24.8959C161.045 40.8365 170 62.4566 170 85ZM88.0494 62.7513C79.7831 66.1938 63.2506 73.3125 38.4731 84.1075C34.4569 85.7012 32.3425 87.2737 32.1512 88.8037C31.8325 91.3856 35.0731 92.4056 39.4825 93.7975L41.3419 94.3819C45.6769 95.795 51.5206 97.4419 54.5487 97.5056C57.3112 97.5694 60.3819 96.4431 63.7712 94.1056C86.9231 78.4763 98.8763 70.5819 99.62 70.4119C100.151 70.2844 100.895 70.1356 101.384 70.5819C101.883 71.0175 101.83 71.8569 101.777 72.08C101.458 73.4506 88.74 85.2656 82.1631 91.3856C80.1125 93.2981 78.6569 94.6475 78.3594 94.9556C77.7043 95.6251 77.0383 96.284 76.3619 96.9319C72.3244 100.821 69.3069 103.732 76.5212 108.492C79.9956 110.787 82.7794 112.667 85.5525 114.559C88.57 116.62 91.5875 118.671 95.4975 121.242C96.4856 121.879 97.4419 122.57 98.3663 123.229C101.883 125.736 105.06 127.989 108.959 127.628C111.233 127.415 113.581 125.29 114.771 118.915C117.587 103.859 123.122 71.2512 124.397 57.8106C124.475 56.6933 124.429 55.5708 124.259 54.4637C124.159 53.5704 123.727 52.7474 123.048 52.1581C122.081 51.4908 120.929 51.145 119.754 51.17C116.567 51.2231 111.647 52.9338 88.0494 62.7513Z" fill="#F44D88"/>
</g>
<defs>
<clipPath id="clip0_70_77">
<rect width="170" height="170" fill="white"/>
</clipPath>
</defs>
</svg>
