<svg width="170" height="170" viewBox="0 0 170 170" fill="none" xmlns="http://www.w3.org/2000/svg">
<rect x="31.1665" y="36.833" width="104.833" height="96.3333" fill="white"/>
<g clip-path="url(#clip0_70_78)">
<path fill-rule="evenodd" clip-rule="evenodd" d="M134.479 120.029C132.43 125.828 124.287 130.625 117.793 132.028C113.348 132.972 107.55 133.718 88.0175 125.624C66.079 116.535 35.615 84.1583 35.615 62.6128C35.615 51.6445 41.939 38.8726 52.9975 38.8726C58.3185 38.8726 59.4915 38.9763 61.2425 43.1765C63.291 48.125 68.289 60.3171 68.884 61.5669C71.3405 66.6939 66.3849 69.6953 62.7894 74.1592C61.6419 75.5025 60.3415 76.9554 61.795 79.4551C63.24 81.9038 68.238 90.0494 75.582 96.5879C85.068 105.039 92.7605 107.738 95.5145 108.885C97.563 109.736 100.011 109.538 101.507 107.939C103.403 105.89 105.757 102.49 108.154 99.1404C109.845 96.7426 111.996 96.4432 114.249 97.2935C115.77 97.8206 135.107 106.801 135.923 108.238C136.527 109.284 136.527 114.231 134.479 120.029ZM85.017 0H84.9744C38.1139 0 0 38.1255 0 85C0 103.587 5.99256 120.83 16.1841 134.817L5.59304 166.402L38.2586 155.963C51.6971 164.857 67.7365 170 85.017 170C131.877 170 170 131.875 170 85C170 38.1255 131.877 0 85.017 0Z" fill="#F44D88"/>
</g>
<defs>
<clipPath id="clip0_70_78">
<rect width="170" height="170" fill="white"/>
</clipPath>
</defs>
</svg>
