<svg width="219" height="223" viewBox="0 0 219 223" fill="none" xmlns="http://www.w3.org/2000/svg">
<g filter="url(#filter0_d_62_93)">
<path d="M109.5 20C158.929 20 199 60.0705 199 109.5C199 158.929 158.929 199 109.5 199C60.0705 199 20 158.929 20 109.5C20 60.0705 60.0705 20 109.5 20ZM109.5 23C61.7274 23 23 61.7274 23 109.5C23 157.273 61.7274 196 109.5 196C157.273 196 196 157.273 196 109.5C196 61.7274 157.273 23 109.5 23ZM110.5 132.379L117.485 125.394C118.071 124.808 119.021 124.808 119.606 125.394C120.192 125.979 120.192 126.929 119.606 127.515L110.061 137.061C109.475 137.646 108.525 137.646 107.939 137.061L98.3936 127.515C97.8078 126.929 97.8078 125.979 98.3936 125.394C98.9793 124.808 99.9289 124.808 100.515 125.394L107.5 132.379V83H110.5V132.379Z" fill="#F44D88"/>
</g>
<defs>
<filter id="filter0_d_62_93" x="-4" y="-4" width="227" height="227" filterUnits="userSpaceOnUse" color-interpolation-filters="sRGB">
<feFlood flood-opacity="0" result="BackgroundImageFix"/>
<feColorMatrix in="SourceAlpha" type="matrix" values="0 0 0 0 0 0 0 0 0 0 0 0 0 0 0 0 0 0 127 0" result="hardAlpha"/>
<feOffset/>
<feGaussianBlur stdDeviation="12"/>
<feComposite in2="hardAlpha" operator="out"/>
<feColorMatrix type="matrix" values="0 0 0 0 0.956863 0 0 0 0 0.301961 0 0 0 0 0.533333 0 0 0 1 0"/>
<feBlend mode="normal" in2="BackgroundImageFix" result="effect1_dropShadow_62_93"/>
<feBlend mode="normal" in="SourceGraphic" in2="effect1_dropShadow_62_93" result="shape"/>
</filter>
</defs>
</svg>
